# xmcd
#
# Track frame offsets:
# 150
# 3718
# 5259
# 25000
# 40116
# 57640
# 65178
# 75558
# 82792
# 91105
# 97571
# 102556
# 106083
# 106957
# 109820
# 113306
# 121616
# 124201
# 129078
# 129982
# 135527
# 138629
# 149644
# 163625
# 169348
# 181300
# 185401
# 200587
# 212019
# 223610
# 231140
# 252445
# 254360
# 256059
# 260360
# 275531
# 282238
# 290716
# 295129
#
# Disc length: 3973 seconds
#
# Revision: 0
# Processed by: cddbd v1.5.1PL0 Copyright (c) Steve Scherf et al.
# Submitted via: Axialis_AX_CDPlayer 2.6
#
DISCID=2e0f8327
DTITLE=Elvis Presley, Johnny Cash, Carl Perkins, Jerry Lee Lewis - The Milli
DTITLE=on \nDollar Quartett
DYEAR=1900
DGENRE=
TTITLE0=The Million Dollar Quartett
TTITLE1=The Million Dollar Quartett
TTITLE2=The Million Dollar Quartett
TTITLE3=The Million Dollar Quartett
TTITLE4=The Million Dollar Quartett
TTITLE5=The Million Dollar Quartett
TTITLE6=The Million Dollar Quartett
TTITLE7=The Million Dollar Quartett
TTITLE8=The Million Dollar Quartett
TTITLE9=The Million Dollar Quartett
TTITLE10=The Million Dollar Quartett
TTITLE11=The Million Dollar Quartett
TTITLE12=The Million Dollar Quartett
TTITLE13=The Million Dollar Quartett
TTITLE14=The Million Dollar Quartett
TTITLE15=The Million Dollar Quartett
TTITLE16=The Million Dollar Quartett
TTITLE17=The Million Dollar Quartett
TTITLE18=The Million Dollar Quartett
TTITLE19=The Million Dollar Quartett
TTITLE20=The Million Dollar Quartett
TTITLE21=The Million Dollar Quartett
TTITLE22=The Million Dollar Quartett
TTITLE23=The Million Dollar Quartett
TTITLE24=The Million Dollar Quartett
TTITLE25=The Million Dollar Quartett
TTITLE26=The Million Dollar Quartett
TTITLE27=The Million Dollar Quartett
TTITLE28=The Million Dollar Quartett
TTITLE29=The Million Dollar Quartett
TTITLE30=The Million Dollar Quartett
TTITLE31=The Million Dollar Quartett
TTITLE32=The Million Dollar Quartett
TTITLE33=The Million Dollar Quartett
TTITLE34=The Million Dollar Quartett
TTITLE35=The Million Dollar Quartett
TTITLE36=The Million Dollar Quartett
TTITLE37=The Million Dollar Quartett
TTITLE38=The Million Dollar Quartett
EXTD=
EXTT0=
EXTT1=
EXTT2=
EXTT3=
EXTT4=
EXTT5=
EXTT6=
EXTT7=
EXTT8=
EXTT9=
EXTT10=
EXTT11=
EXTT12=
EXTT13=
EXTT14=
EXTT15=
EXTT16=
EXTT17=
EXTT18=
EXTT19=
EXTT20=
EXTT21=
EXTT22=
EXTT23=
EXTT24=
EXTT25=
EXTT26=
EXTT27=
EXTT28=
EXTT29=
EXTT30=
EXTT31=
EXTT32=
EXTT33=
EXTT34=
EXTT35=
EXTT36=
EXTT37=
EXTT38=
PLAYORDER=
